<svg xmlns="http://www.w3.org/2000/svg" xmlns:xlink="http://www.w3.org/1999/xlink"><symbol id="arrow" viewBox="0 0 66 66"><g fill="none">
<path fill-rule="evenodd" clip-rule="evenodd" d="M43.7257 0.582032C43.9566 0.430525 44.2666 0.49486 44.4181 0.725728L65.4181 32.7257C65.5274 32.8923 65.5274 33.1078 65.4181 33.2744L44.4181 65.2744C44.2666 65.5052 43.9566 65.5696 43.7257 65.4181C43.4949 65.2666 43.4305 64.9566 43.582 64.7257L64.402 33.0001L43.582 1.27438C43.4305 1.04352 43.4949 0.73354 43.7257 0.582032Z" fill="currentColor"/>
<path fill-rule="evenodd" clip-rule="evenodd" d="M0.5 33C0.5 32.7239 0.723858 32.5 1 32.5L65 32.5C65.2761 32.5 65.5 32.7238 65.5 33C65.5 33.2761 65.2761 33.5 65 33.5L1 33.5C0.723858 33.5 0.5 33.2761 0.5 33Z" fill="currentColor"/>
</g></symbol><symbol id="burger" viewBox="0 0 26 24"><g fill="none">
<path d="M1 1.5C0.723856 1.5 0.5 1.72386 0.5 2C0.5 2.27614 0.723856 2.5 1 2.5L1 1.5ZM25 2.5C25.2761 2.5 25.5 2.27614 25.5 2C25.5 1.72386 25.2761 1.5 25 1.5L25 2.5ZM1 2.5L25 2.5L25 1.5L1 1.5L1 2.5Z" fill="#0D0E0E"/>
<path d="M1 11.5C0.723858 11.5 0.5 11.7239 0.5 12C0.5 12.2761 0.723858 12.5 1 12.5L1 11.5ZM25 12.5C25.2761 12.5 25.5 12.2761 25.5 12C25.5 11.7239 25.2761 11.5 25 11.5L25 12.5ZM1 12.5L25 12.5L25 11.5L1 11.5L1 12.5Z" fill="#0D0E0E"/>
<path d="M1 21.5C0.723858 21.5 0.5 21.7239 0.5 22C0.5 22.2761 0.723858 22.5 1 22.5L1 21.5ZM25 22.5C25.2761 22.5 25.5 22.2761 25.5 22C25.5 21.7239 25.2761 21.5 25 21.5L25 22.5ZM1 22.5L25 22.5L25 21.5L1 21.5L1 22.5Z" fill="#0D0E0E"/>
</g></symbol><symbol id="close" viewBox="0 0 26 26"><g fill="none">
<path fill-rule="evenodd" clip-rule="evenodd" d="M25.3535 0.646447C25.5487 0.841709 25.5487 1.15829 25.3535 1.35355L13.7071 13L25.3535 24.6464C25.5488 24.8416 25.5488 25.1582 25.3535 25.3535C25.1582 25.5487 24.8417 25.5487 24.6464 25.3535L13 13.7071L1.35355 25.3535C1.15829 25.5487 0.841709 25.5487 0.646447 25.3535C0.451184 25.1582 0.451184 24.8416 0.646447 24.6464L12.2929 13L0.64647 1.35356C0.451208 1.15829 0.451208 0.841711 0.64647 0.646449C0.841733 0.451186 1.15832 0.451186 1.35358 0.646449L13 12.2928L24.6464 0.646447C24.8416 0.451184 25.1582 0.451184 25.3535 0.646447Z" fill="#0D0E0E"/>
</g></symbol><symbol id="logo" viewBox="0 0 135 18"><g fill="none">
<path d="M128.071 0.627917L128.016 0.51123H124.097L130.279 17.2558V17.3725H134.253L128.071 0.627917Z" fill="currentColor"/>
<path d="M117.528 0.569574L112.726 17.3725H116.369L120.123 4.94532H124.594L122.993 0.51123L117.528 0.569574Z" fill="currentColor"/>
<path d="M4.42913 8.56261L4.37393 8.50427V5.29538L6.25064 3.19502H17.6765L23.1962 8.97102V3.31171L20.4363 0.569574L3.38038 0.51123L0.841309 3.31171V6.98734L4.42913 10.9547V8.56261Z" fill="currentColor"/>
<path d="M19.6636 12.6467H19.6084V12.7633L17.6213 14.6303H6.19544L0.841309 8.44594V14.572L3.60117 17.3725H20.4363L23.2514 14.5136V10.488L19.6636 6.87067V12.6467Z" fill="currentColor"/>
<path d="M61.3927 8.56261L61.3375 8.50427V5.29538L63.2142 3.19502H74.5849L80.1046 8.97102V3.31171L77.3999 0.569574L60.344 0.51123L57.7497 3.31171V6.98734L61.3927 10.9547V8.56261Z" fill="currentColor"/>
<path d="M76.6272 12.6467H76.572V12.7633L74.5849 14.6303H63.159L57.7497 8.44594V14.572L60.5096 17.3725H77.3999L80.1598 14.5136V10.488L76.6272 6.87067V12.6467Z" fill="currentColor"/>
<path d="M43.1224 0.51123L40.9697 12.1799L41.8529 17.3141L43.3432 17.3725L45.4959 4.94532H48.2005V17.4891H51.7884V3.37005L49.3045 0.51123H43.1224Z" fill="currentColor"/>
<path d="M31.3654 0.569568L28.9367 3.48674V17.4308H29.1575C29.4887 17.4308 31.255 17.4308 32.4141 17.4308H32.5797V5.00366H35.2844L37.2715 17.4891H40.9145L37.9338 0.569568H31.3654Z" fill="currentColor"/>
<path d="M101.521 0.51123L105.219 3.54508V12.705L102.57 14.6303H90.2057V3.31171H103.177L99.81 0.51123H86.4523V17.3725H106.213L108.862 14.572V3.31171L105.495 0.51123H101.521Z" fill="currentColor"/>
</g></symbol><symbol id="ss-ok" viewBox="0 0 14 22"><g fill="none">
<path d="M9.10558 15.9385C11.3879 15.4735 12.7556 14.3927 12.828 14.3347C13.4958 13.7991 13.6031 12.8235 13.0675 12.1556C12.532 11.4877 11.5565 11.3804 10.8885 11.9159C10.8743 11.9274 9.4156 13.0464 7.01546 13.048C4.6154 13.0464 3.12583 11.9274 3.11171 11.9159C2.4437 11.3804 1.46819 11.4877 0.932666 12.1556C0.397062 12.8235 0.504346 13.7991 1.1722 14.3347C1.24554 14.3935 2.66969 15.5025 5.01598 15.9565L1.74599 19.3739C1.15172 19.9902 1.16959 20.9715 1.78588 21.5658C2.08668 21.8558 2.47437 22 2.86174 22C3.26787 22 3.67359 21.8413 3.97774 21.5258L7.01554 18.2898L10.3602 21.5468C10.9662 22.1518 11.9475 22.1509 12.5524 21.5451C13.1572 20.9392 13.1565 19.9578 12.5507 19.3529L9.10558 15.9385Z" fill="white"/>
<path d="M7.09289 0C3.94429 0 1.39191 2.55246 1.39191 5.70098C1.39191 8.84958 3.94429 11.4022 7.09289 11.4022C10.2415 11.4022 12.7939 8.84958 12.7939 5.70098C12.7939 2.55246 10.2415 0 7.09289 0ZM7.09289 8.0578C5.79136 8.0578 4.73623 7.00258 4.73623 5.70106C4.73623 4.39954 5.79136 3.3444 7.09289 3.3444C8.39441 3.3444 9.44954 4.39954 9.44954 5.70106C9.44954 7.00258 8.39441 8.0578 7.09289 8.0578Z" fill="white"/>
</g></symbol><symbol id="ss-tg" viewBox="0 0 22 19"><g fill="none">
<path fill-rule="evenodd" clip-rule="evenodd" d="M1.51239 7.84876C7.41795 5.27581 11.3559 3.57955 13.3263 2.76001C18.9521 0.420042 20.1211 0.0135652 20.883 0.00014311C21.0506 -0.00280894 21.4253 0.0387224 21.668 0.235667C21.873 0.401964 21.9294 0.626606 21.9563 0.784273C21.9833 0.941941 22.0169 1.30111 21.9902 1.58176C21.6854 4.78499 20.3662 12.5584 19.6951 16.1461C19.4111 17.6642 18.852 18.1732 18.3107 18.223C17.1343 18.3312 16.2409 17.4455 15.1015 16.6986C13.3186 15.5299 12.3113 14.8023 10.5807 13.6619C8.58058 12.3438 9.87715 11.6194 11.017 10.4355C11.3153 10.1257 16.4986 5.41112 16.5989 4.98343C16.6115 4.92994 16.6231 4.73056 16.5047 4.62528C16.3862 4.52 16.2114 4.556 16.0852 4.58463C15.9064 4.62522 13.0581 6.50783 7.54035 10.2325C6.73187 10.7876 5.99958 11.0581 5.34347 11.0439C4.62016 11.0283 3.2288 10.635 2.19447 10.2988C0.925826 9.88637 -0.0824703 9.66834 0.00532971 8.96798C0.0510613 8.60318 0.553413 8.23011 1.51239 7.84876Z" fill="white"/>
</g></symbol><symbol id="ss-vk" viewBox="0 0 22 14"><g fill="none">
<path fill-rule="evenodd" clip-rule="evenodd" d="M21.4952 1.352C21.6481 0.84202 21.4952 0.467285 20.7673 0.467285H18.3605C17.7485 0.467285 17.4664 0.791 17.3134 1.14796C17.3134 1.14796 16.0895 4.1313 14.3556 6.06917C13.7946 6.63012 13.5396 6.8086 13.2336 6.8086C13.0807 6.8086 12.8592 6.63012 12.8592 6.12018V1.352C12.8592 0.740025 12.6816 0.467285 12.1716 0.467285H8.38945C8.00703 0.467285 7.77703 0.751316 7.77703 1.0205C7.77703 1.60064 8.64393 1.73443 8.73328 3.36635V6.91064C8.73328 7.68771 8.59295 7.8286 8.28696 7.8286C7.47104 7.8286 5.48632 4.83194 4.30919 1.40297C4.0785 0.736504 3.84712 0.467285 3.23201 0.467285H0.825199C0.137539 0.467285 0 0.791 0 1.14796C0 1.78545 0.815961 4.94726 3.79925 9.12899C5.7881 11.9848 8.59025 13.5328 11.1401 13.5328C12.67 13.5328 12.8592 13.189 12.8592 12.5967V10.4384C12.8592 9.75069 13.0042 9.61345 13.4886 9.61345C13.8456 9.61345 14.4576 9.79193 15.8855 11.1689C17.5174 12.8007 17.7864 13.5328 18.7043 13.5328H21.1112C21.7988 13.5328 22.1426 13.189 21.9443 12.5105C21.7272 11.8342 20.9481 10.853 19.9143 9.68994C19.3533 9.02699 18.5118 8.31306 18.2568 7.95602C17.8999 7.4971 18.0019 7.29307 18.2568 6.88513C18.2568 6.88513 21.1892 2.75438 21.4952 1.352V1.352Z" fill="white"/>
</g></symbol><symbol id="ss-yt" viewBox="0 0 22 16"><g fill="none">
<path d="M11.0877 0.437988C11.8951 0.440051 17.9937 0.467893 19.5952 0.889661C20.5419 1.13715 21.2864 1.86932 21.5401 2.79845C22 4.48449 22 7.99991 22 7.99991V8.01022C22 8.22574 21.9845 11.57 21.5401 13.2014C21.2864 14.1305 20.5419 14.8616 19.5952 15.1102C18.0319 15.5226 12.1828 15.5587 11.1547 15.5618H10.8453C9.81822 15.5587 3.96916 15.5216 2.40583 15.1102C1.45917 14.8627 0.713602 14.1305 0.459923 13.2014C0.0453732 11.6783 0.00618731 8.66401 0 8.09375V7.90607C0.00515609 7.33683 0.0453732 4.32155 0.459923 2.79845C0.713602 1.86932 1.45917 1.13818 2.4048 0.889661C4.00731 0.467893 10.1059 0.440051 10.9123 0.437988H11.0877ZM8.80144 4.75879V11.2421L14.5165 7.99991L8.80144 4.75879Z" fill="white"/>
</g></symbol><symbol id="ss-zen" viewBox="0 0 40 40"><g fill="none">
<path d="M40 20.2143V19.7857C31.1429 19.5 27.1 19.2857 23.8571 16.1429C20.7143 12.9 20.4857 8.85714 20.2143 0H19.7857C19.5 8.85714 19.2857 12.9 16.1429 16.1429C12.9 19.2857 8.85714 19.5143 0 19.7857V20.2143C8.85714 20.5 12.9 20.7143 16.1429 23.8571C19.2857 27.1 19.5143 31.1429 19.7857 40H20.2143C20.5 31.1429 20.7143 27.1 23.8571 23.8571C27.1 20.7143 31.1429 20.4857 40 20.2143" fill="white"/>
</g></symbol></svg>