<svg width="66" height="26" viewBox="0 0 66 26" fill="none" xmlns="http://www.w3.org/2000/svg">
<path d="M3.49641 17.168C4.56041 17.168 5.44241 16.86 6.15641 16.258C6.87041 15.656 7.23441 14.858 7.23441 13.892C7.23441 12.996 6.89841 12.268 6.22641 11.708C5.56841 11.148 4.79841 10.854 3.94441 10.84L6.87041 7.97V7.2H1.04641V8.138H5.47041L2.44641 11.092V11.806C2.79641 11.708 3.16041 11.666 3.53841 11.666C5.16241 11.666 6.19841 12.548 6.19841 13.892C6.19841 14.606 5.91841 15.166 5.37241 15.586C4.82641 15.992 4.18241 16.202 3.44041 16.202C2.36241 16.202 1.42441 15.922 0.640406 15.376V16.454C1.39641 16.93 2.34841 17.168 3.49641 17.168ZM12.7685 17.168C13.7065 17.168 14.5045 16.86 15.1345 16.23C15.7785 15.6 16.1005 14.816 16.1005 13.85C16.1005 12.94 15.7925 12.184 15.1765 11.61C14.5745 11.022 13.8185 10.728 12.9365 10.728C11.6065 10.728 10.5845 11.302 10.0665 12.184C10.1085 10.112 11.0745 7.998 13.3985 7.998C14.1125 7.998 14.7705 8.208 15.3865 8.628V7.634C14.8125 7.228 14.1125 7.032 13.3145 7.032C10.6545 7.018 9.00245 9.524 9.05845 12.576C9.05845 14.018 9.39445 15.152 10.0525 15.964C10.7105 16.762 11.6205 17.168 12.7685 17.168ZM12.7125 16.202C11.1865 16.202 10.2625 15.222 10.0945 13.542C10.2765 12.996 10.5985 12.548 11.0885 12.184C11.5785 11.82 12.1105 11.638 12.6845 11.638C13.3705 11.638 13.9305 11.834 14.3925 12.24C14.8545 12.646 15.0785 13.178 15.0785 13.85C15.0785 14.536 14.8545 15.096 14.3925 15.544C13.9445 15.978 13.3845 16.202 12.7125 16.202ZM17.9712 12.1C17.9712 13.542 18.3352 14.746 19.0772 15.712C19.8192 16.678 20.7992 17.168 21.9892 17.168C23.1792 17.168 24.1452 16.678 24.8872 15.712C25.6292 14.746 25.9932 13.542 25.9932 12.1C25.9932 10.658 25.6292 9.454 24.8872 8.488C24.1452 7.522 23.1792 7.032 21.9892 7.032C20.7992 7.032 19.8192 7.522 19.0772 8.502C18.3352 9.468 17.9712 10.672 17.9712 12.1ZM24.9712 12.1C24.9712 13.276 24.6912 14.256 24.1312 15.04C23.5852 15.81 22.8712 16.202 21.9892 16.202C21.1072 16.202 20.3932 15.81 19.8332 15.04C19.2872 14.256 19.0072 13.276 19.0072 12.1C19.0072 10.938 19.2872 9.958 19.8472 9.174C20.4072 8.39 21.1212 7.998 21.9892 7.998C22.8572 7.998 23.5712 8.39 24.1312 9.174C24.6912 9.958 24.9712 10.938 24.9712 12.1ZM28.5553 9.16C28.5553 8.376 29.1713 7.746 29.9413 7.746C30.7113 7.746 31.3273 8.376 31.3273 9.16C31.3273 9.93 30.7113 10.56 29.9413 10.56C29.1713 10.56 28.5553 9.93 28.5553 9.16ZM28.4293 7.662C28.0093 8.082 27.7993 8.586 27.7993 9.16C27.7993 9.734 28.0093 10.238 28.4293 10.658C28.8633 11.064 29.3673 11.274 29.9413 11.274C30.5153 11.274 31.0193 11.064 31.4393 10.658C31.8733 10.238 32.0833 9.734 32.0833 9.16C32.0833 8.586 31.8733 8.082 31.4393 7.662C31.0193 7.242 30.5153 7.032 29.9413 7.032C29.3673 7.032 28.8633 7.242 28.4293 7.662Z" fill="white"/>
<path fill-rule="evenodd" clip-rule="evenodd" d="M41 13C41 19.6271 46.3729 25 53 25C59.6271 25 65 19.6271 65 13C65 6.37287 59.6271 1 53 1C46.3729 1 41 6.37287 41 13V13Z" stroke="white" stroke-linecap="round" stroke-linejoin="round"/>
<path d="M41 13.45C41 13.296 41.064 13.146 41.186 13" stroke="white" stroke-linecap="round" stroke-linejoin="round"/>
<path d="M43 11.5048C45.1653 10.5973 48.8406 10 53.0108 10C57.8983 10 62.1063 10.8204 64 12" stroke="white" stroke-linecap="round" stroke-linejoin="round" stroke-dasharray="1.01 2.03"/>
<path d="M65 13C65 14.6572 59.6271 16 53 16C46.3729 16 41 14.6572 41 13" stroke="white" stroke-linecap="round" stroke-linejoin="round"/>
<path d="M53 1C53.154 1 53.304 1.064 53.451 1.186" stroke="white" stroke-linecap="round" stroke-linejoin="round"/>
<path d="M54.4952 3C55.4027 5.16533 56 8.84061 56 13.0108C56 17.8983 55.1796 22.1063 54 24" stroke="white" stroke-linecap="round" stroke-linejoin="round" stroke-dasharray="1.01 2.03"/>
<path d="M53 25C51.3428 25 50 19.6271 50 13C50 6.37287 51.3428 1 53 1" stroke="white" stroke-linecap="round" stroke-linejoin="round"/>
</svg>
